<svg width="32" height="32" viewBox="0 0 32 32" fill="none" xmlns="http://www.w3.org/2000/svg">
  <defs>
    <linearGradient id="grad1" x1="0%" y1="0%" x2="100%" y2="100%">
      <stop offset="0%" style="stop-color:#4F46E5;stop-opacity:1" />
      <stop offset="50%" style="stop-color:#7C3AED;stop-opacity:1" />
      <stop offset="100%" style="stop-color:#9333EA;stop-opacity:1" />
    </linearGradient>
  </defs>
  <!-- Background with rounded corners -->
  <rect width="32" height="32" rx="7" fill="url(#grad1)"/>
  <!-- Target/Goal icon -->
  <circle cx="16" cy="16" r="8" fill="white" opacity="0.2"/>
  <circle cx="16" cy="16" r="5" fill="white" opacity="0.3"/>
  <circle cx="16" cy="16" r="2.5" fill="white" opacity="0.9"/>
  <!-- Sparkle/Star effect -->
  <path d="M16 4L17 8L21 9L17 10L16 14L15 10L11 9L15 8Z" fill="white" opacity="0.8"/>
  <path d="M24 12L25 14L27 15L25 16L24 18L23 16L21 15L23 14Z" fill="white" opacity="0.6"/>
  <path d="M8 20L9 22L11 23L9 24L8 26L7 24L5 23L7 22Z" fill="white" opacity="0.6"/>
</svg>

